<?xml version="1.0" standalone="no"?>
<!DOCTYPE svg PUBLIC "-//W3C//DTD SVG 20010904//EN"
 "http://www.w3.org/TR/2001/REC-SVG-20010904/DTD/svg10.dtd">
<svg version="1.0" xmlns="http://www.w3.org/2000/svg"
 width="512.000000pt" height="512.000000pt" viewBox="0 0 512.000000 512.000000"
 preserveAspectRatio="xMidYMid meet">
<metadata>
Created by potrace 1.14, written by Peter Selinger 2001-2017
</metadata>
<g transform="translate(0.000000,512.000000) scale(0.100000,-0.100000)"
fill="#000000" stroke="none">
<path d="M0 4996 l0 -125 153 -218 c315 -449 503 -730 494 -739 -14 -14 -78
28 -107 73 -41 60 -39 57 -45 52 -2 -3 16 -34 41 -69 53 -76 124 -219 124
-251 0 -22 0 -22 -20 -4 -16 15 -20 15 -15 3 3 -8 17 -20 31 -26 30 -14 32
-52 4 -77 -19 -17 -20 -31 -20 -265 0 -254 11 -359 57 -555 19 -82 128 -378
177 -478 l33 -69 -84 84 -84 85 -20 89 c-45 205 -72 315 -104 415 -34 106 -53
199 -57 274 -1 32 -3 27 -7 -20 l-6 -60 -24 44 -23 45 31 28 c17 15 31 31 31
35 0 4 -15 -8 -34 -26 l-33 -32 -47 65 c-38 54 -57 70 -109 95 -78 37 -172 61
-265 68 l-72 6 0 -1285 0 -1286 28 -7 c15 -3 41 -17 59 -31 17 -13 34 -24 36
-24 3 0 0 18 -5 39 -16 64 6 172 43 207 36 34 86 37 126 8 37 -27 97 -146 89
-176 -3 -14 -28 -36 -61 -56 -94 -57 -171 -136 -211 -216 -47 -96 -72 -246
-58 -348 7 -47 6 -67 -1 -64 -47 19 -45 20 -45 -30 l0 -48 28 27 c15 15 31 27
35 27 3 0 13 -21 21 -47 29 -95 66 -162 66 -118 0 14 4 14 36 0 48 -20 78 -19
41 1 l-27 15 24 42 c13 23 32 70 41 105 17 61 18 62 38 45 18 -16 19 -27 14
-120 -3 -57 -1 -103 3 -103 4 0 11 50 15 111 l7 111 27 -7 c38 -9 81 -27 81
-34 0 -3 -6 -45 -14 -94 l-13 -87 79 0 78 0 0 35 c0 19 4 35 10 35 5 0 6 8 3
17 -6 15 -2 14 28 -5 28 -18 33 -27 31 -52 -2 -16 1 -30 7 -30 6 0 11 5 11 12
0 9 3 9 12 0 8 -8 59 -12 164 -12 l152 0 -19 68 c-11 37 -26 89 -35 115 -10
33 -15 87 -15 165 0 132 21 233 71 341 17 35 30 66 30 69 0 11 -51 -62 -101
-145 -28 -46 -53 -83 -56 -83 -11 0 7 97 33 175 54 166 165 346 286 466 43 42
78 79 78 83 0 3 -17 -5 -37 -18 -43 -29 -123 -59 -132 -50 -3 3 49 58 115 123
135 131 177 193 243 350 33 80 45 122 47 171 2 36 1 58 -3 50 -3 -8 -10 -26
-15 -40 -15 -39 -28 -5 -28 72 0 48 9 95 29 158 l29 90 -46 -40 c-75 -67 -78
-51 -12 80 21 41 52 92 69 114 39 49 40 63 1 16 l-29 -35 -1 40 c0 89 88 316
172 440 107 159 189 226 355 291 54 21 100 39 102 41 8 6 -41 36 -124 78 -90
45 -112 70 -121 136 -6 43 -4 49 30 87 l36 40 -15 58 c-16 64 -20 160 -6 168
5 3 11 15 14 26 3 12 1 18 -5 14 -16 -10 0 47 29 107 50 105 183 203 319 235
93 22 239 15 312 -15 122 -49 220 -137 274 -246 l30 -60 -7 75 c-7 82 -43 271
-81 419 -25 101 -47 152 -102 245 l-35 58 -151 -5 c-250 -9 -479 -73 -630
-177 -178 -123 -394 -387 -466 -571 -54 -135 -84 -360 -66 -484 14 -91 73
-117 172 -75 l47 20 -7 -72 c-4 -40 -11 -116 -16 -168 -5 -52 -10 -170 -10
-261 0 -140 -3 -175 -20 -225 -20 -57 -40 -91 -40 -67 0 7 -9 15 -20 18 -14 4
-24 22 -32 51 -7 24 -16 44 -21 44 -25 0 22 380 62 510 11 35 19 66 17 67 -2
2 -27 -5 -55 -17 -67 -26 -79 -25 -91 6 -6 14 -14 23 -20 19 -11 -7 -36 40
-56 104 -28 93 -11 356 29 441 7 14 22 26 35 28 17 3 32 22 61 80 169 336 189
372 272 470 30 37 58 74 61 84 8 19 106 88 271 189 88 54 114 75 101 79 -35
13 11 19 53 7 37 -9 46 -8 99 19 58 28 62 29 220 29 l161 0 36 -28 c21 -16 50
-54 66 -86 32 -62 63 -169 54 -184 -3 -5 5 -15 16 -24 44 -30 122 -265 161
-483 11 -63 26 -120 33 -127 6 -6 50 -39 97 -73 98 -70 85 -75 155 62 l46 88
-7 102 c-7 89 -9 98 -17 68 -20 -79 -18 -78 -75 -22 -29 29 -52 54 -52 58 0 3
14 3 30 -1 28 -6 30 -5 30 25 0 21 -9 39 -26 55 -21 20 -26 33 -26 68 1 48 15
91 31 102 16 9 13 97 -4 132 -19 38 -32 105 -16 83 9 -12 11 -11 11 7 0 12 9
27 20 33 35 19 269 -29 337 -69 26 -15 12 -13 -38 5 -62 22 -173 44 -221 44
-47 0 -47 4 1 -130 40 -114 69 -263 85 -439 8 -80 14 -134 15 -119 2 39 77 63
197 63 84 0 95 -3 165 -37 100 -49 160 -111 201 -207 31 -72 33 -83 32 -191 0
-74 -5 -126 -14 -145 -7 -18 -12 -56 -11 -93 2 -52 -1 -69 -21 -100 -21 -33
-23 -40 -11 -62 14 -28 18 -207 4 -228 -6 -10 -17 -4 -42 26 -19 22 -65 63
-103 93 l-69 53 42 20 c47 23 55 42 14 31 -16 -3 -42 -9 -60 -12 -30 -5 -55
-34 -34 -41 5 -2 38 -21 72 -44 143 -92 223 -216 278 -428 32 -123 34 -140 31
-240 l-1 -65 -20 54 c-20 57 -37 84 -25 41 31 -115 46 -189 55 -270 13 -121
23 -355 13 -315 -4 16 -7 -52 -7 -150 0 -127 -4 -189 -13 -210 l-14 -30 -24
45 c-36 64 -24 33 39 -105 70 -152 87 -220 91 -354 3 -96 9 -177 21 -314 2
-26 1 -47 -3 -47 -4 0 -20 23 -37 51 -16 28 -36 56 -44 62 -8 7 2 -13 21 -43
101 -158 166 -351 189 -560 l8 -75 -4 82 c-2 65 0 81 11 76 13 -5 23 -30 44
-110 6 -24 16 -43 21 -43 7 0 9 10 5 26 -4 15 -8 38 -10 53 -2 14 -1 17 1 7 4
-16 7 -17 15 -5 7 10 8 7 4 -13 -5 -23 -3 -25 15 -21 21 6 41 41 31 57 -3 5 1
7 9 4 8 -3 31 -11 52 -19 30 -11 40 -20 49 -51 12 -40 39 -53 35 -17 -1 12 5
24 13 26 13 4 13 3 1 -5 -12 -9 -12 -13 -2 -26 10 -12 33 -16 92 -16 44 0 79
2 79 4 0 13 -88 223 -121 289 -21 43 -39 86 -39 96 0 20 19 41 36 41 17 0 95
-239 88 -267 -5 -16 -2 -23 8 -23 8 0 20 -10 26 -22 6 -14 11 -17 11 -8 1 8
18 -13 38 -48 l37 -62 138 0 138 0 0 950 0 950 -45 0 c-25 0 -45 5 -45 10 0
22 31 83 60 118 29 35 43 69 18 44 -18 -18 -28 -15 -28 8 0 11 9 25 20 32 19
12 20 24 20 385 l0 373 -142 0 c-169 0 -178 -3 -317 -114 -52 -42 -99 -72
-105 -69 -6 3 -8 2 -3 -2 4 -5 0 -17 -10 -27 -17 -19 -43 -25 -43 -9 0 25 -87
112 -134 134 -72 34 -108 85 -121 169 -6 37 -8 65 -4 62 14 -8 17 23 7 76 -6
35 -6 55 1 59 5 3 11 50 13 103 2 53 0 94 -4 92 -3 -2 -4 14 -1 36 4 24 1 46
-7 55 -15 19 -5 69 13 59 9 -5 9 -4 0 7 -7 7 -14 31 -14 53 -2 39 -2 38 -11
-14 -19 -123 -21 -196 -4 -213 24 -23 20 -55 -6 -59 -21 -3 -23 -10 -29 -88
-4 -47 -10 -118 -14 -158 -7 -69 -6 -73 11 -70 11 2 22 12 26 23 3 11 6 -10 7
-46 1 -46 -3 -70 -13 -78 -31 -26 -59 -152 -37 -166 10 -5 -22 -112 -38 -128
-8 -8 -8 15 9 316 6 98 10 200 10 227 0 46 -2 49 -27 52 -32 3 -34 19 -15 128
21 117 12 434 -15 524 -3 11 -1 16 5 12 5 -3 13 -30 16 -59 12 -96 39 -166 70
-183 l28 -14 -4 60 c-5 65 1 71 12 13 7 -33 8 -31 6 18 -1 36 -5 55 -12 52 -6
-2 -11 10 -12 29 -2 32 -11 72 -28 112 -5 13 -3 17 6 14 8 -2 19 -20 26 -39
11 -31 13 -32 13 -8 1 14 -10 40 -24 59 -28 39 -30 44 -12 37 8 -3 26 21 50
67 46 89 111 181 307 438 213 279 361 485 431 601 32 54 59 100 59 102 0 3
-33 5 -74 5 -72 0 -75 -1 -168 -57 -51 -32 -107 -69 -123 -81 -17 -13 -122
-78 -235 -144 -231 -134 -292 -172 -469 -283 l-125 -79 -70 75 c-39 41 -80 81
-91 89 -11 8 16 -23 60 -68 44 -45 73 -82 65 -82 -11 0 -11 -2 2 -12 25 -21
48 -61 48 -83 -1 -15 -6 -11 -20 16 -11 20 -27 39 -36 43 -10 4 -14 13 -11 26
9 33 -183 198 -338 291 l-40 23 38 -44 c42 -50 51 -88 16 -69 -13 7 -41 9 -74
4 -34 -4 -55 -2 -60 4 -3 7 2 11 14 11 32 0 25 19 -12 35 -38 16 -228 65 -251
65 -26 0 -18 -17 10 -24 28 -7 104 -65 104 -80 0 -8 -69 -4 -162 10 l-43 7 25
-22 25 -22 -25 7 c-56 15 -190 98 -277 171 -61 52 -69 82 -26 110 l26 17 -24
7 c-13 4 -92 7 -176 8 -166 1 -314 -19 -458 -63 -90 -28 -83 -33 15 -11 67 15
226 18 270 6 34 -9 37 -47 8 -90 -27 -40 -34 -44 -118 -69 -145 -44 -373 -151
-415 -196 -14 -15 -29 -20 -53 -18 -26 3 -39 -3 -67 -31 -21 -21 -35 -45 -35
-59 0 -16 -8 -29 -22 -35 -13 -6 -55 -40 -94 -77 -40 -36 -76 -66 -82 -66 -24
0 -33 28 -22 70 6 23 10 44 7 46 -2 2 -21 -21 -42 -51 -55 -81 -64 -79 -11 3
40 63 104 183 74 139 -7 -10 -18 -26 -24 -34 -8 -12 -11 -2 -11 44 0 81 -5 87
-56 57 -32 -18 -57 -24 -104 -24 -55 0 -73 6 -150 46 -81 42 -269 185 -453
344 -36 31 -78 66 -95 79 -16 12 -54 45 -83 72 -52 48 -54 49 -117 49 -36 0
-65 -3 -65 -7 0 -5 34 -35 76 -68 137 -110 536 -439 637 -527 76 -66 108 -139
59 -138 -27 1 -55 20 -134 91 -40 37 -118 107 -174 155 -56 49 -202 180 -325
292 l-223 202 -128 0 -128 0 0 -124z m2694 -238 c17 -28 -3 -39 -46 -25 -38
12 -49 31 -25 41 23 9 60 1 71 -16z m1960 0 c-5 -7 -69 -80 -144 -163 -74 -82
-167 -186 -205 -230 -38 -44 -106 -115 -151 -157 l-82 -78 -13 31 -12 31 184
182 c310 306 456 439 423 384z m-2390 -34 c22 -22 21 -48 -1 -38 -17 7 -37 8
-77 2 -30 -5 -30 19 1 36 36 20 58 20 77 0z m1050 -36 c5 -9 8 -19 5 -22 -7
-8 -79 13 -79 23 0 27 57 26 74 -1z m-295 -50 c14 -24 14 -28 -3 -47 -23 -25
-53 -27 -78 -4 -22 20 -23 32 -2 61 22 31 63 26 83 -10z m583 -35 c15 -15 28
-36 28 -47 0 -17 -4 -15 -20 12 -11 17 -27 32 -35 32 -8 0 -15 7 -15 15 0 22
10 19 42 -12z m-172 -53 c12 -8 11 -10 -5 -9 -11 1 -31 5 -45 9 -24 8 -24 8 5
9 17 0 37 -4 45 -9z m-1612 -41 c3 -26 2 -27 -52 -28 -31 0 -56 4 -56 9 0 18
54 51 79 48 20 -2 27 -10 29 -29z m1808 -78 c23 -10 45 -24 48 -30 11 -17 -4
-13 -64 19 -61 32 -49 40 16 11z m-478 -67 c16 -11 22 -25 21 -52 l-1 -37 -8
35 c-5 19 -18 43 -30 52 -27 22 -13 24 18 2z m-22 -19 c24 -24 29 -46 11 -47
-4 0 -28 3 -52 7 -50 7 -58 25 -23 49 30 21 35 20 64 -9z m-620 -18 c20 -18
25 -29 20 -45 -10 -30 -17 -27 -48 17 -37 54 -21 70 28 28z m1378 -37 c24 -23
58 -69 75 -103 32 -66 73 -167 67 -167 -2 0 -23 31 -48 68 -25 38 -75 102
-112 144 -36 41 -66 80 -66 87 0 24 42 9 84 -29z m-824 -6 c0 -8 -4 -12 -10
-9 -5 3 -10 10 -10 16 0 5 5 9 10 9 6 0 10 -7 10 -16z m-636 -58 c57 -43 41
-96 -30 -96 -21 -1 -50 -7 -64 -15 -14 -8 -41 -15 -60 -15 -38 0 -120 -33
-120 -48 0 -6 -13 -12 -29 -14 -27 -4 -29 -3 -19 16 29 53 115 161 149 185 33
24 43 27 87 21 32 -4 63 -16 86 -34z m-939 10 c0 -15 -11 -22 -52 -31 -62 -14
-71 -1 -26 35 33 26 78 24 78 -4z m1166 -51 c29 -20 58 -34 65 -31 22 8 28
-33 8 -55 -29 -32 -57 -23 -113 36 -44 46 -51 58 -41 70 17 21 21 20 81 -20z
m1389 -17 c11 -18 20 -40 20 -48 0 -15 -30 29 -43 63 -10 28 2 20 23 -15z
m-1241 -73 c-22 -36 -23 -37 -31 -15 -5 13 -7 24 -6 26 36 45 53 58 56 43 2
-9 -7 -33 -19 -54z m741 60 c10 -12 7 -20 -16 -43 -16 -16 -49 -50 -72 -76
-24 -25 -52 -51 -63 -57 -17 -9 -19 -6 -19 25 0 38 15 57 99 129 50 42 54 43
71 22z m126 -50 c6 -13 8 -29 3 -36 -12 -21 -49 18 -49 53 0 24 2 27 18 17 9
-6 22 -21 28 -34z m-475 -137 c17 -32 4 -49 -32 -41 -21 4 -34 2 -39 -8 -12
-18 -20 -8 -23 27 -4 50 70 67 94 22z m969 -80 c14 -4 4 -68 -10 -68 -5 0 -13
21 -19 48 -5 26 -13 56 -16 67 -4 11 2 6 13 -11 11 -18 26 -34 32 -36z m-3180
34 c0 -18 -140 -132 -162 -132 -33 0 30 73 96 110 53 31 66 35 66 22z m270
-72 c0 -21 -5 -29 -17 -28 -10 0 -33 -5 -51 -11 -34 -10 -34 -10 -28 17 4 15
18 37 32 50 33 29 64 15 64 -28z m-270 19 c0 -18 -52 -64 -118 -102 -69 -40
-72 -42 -72 -28 0 10 169 140 183 141 4 0 7 -5 7 -11z m803 -419 c6 -64 97
-213 164 -269 21 -18 30 -30 21 -27 -10 3 -18 1 -18 -3 0 -11 25 -21 49 -21
10 0 26 -8 35 -19 16 -18 13 -21 -96 -73 l-113 -55 -19 36 c-17 31 -18 44 -8
121 6 47 9 86 7 88 -2 2 -34 10 -71 18 -37 7 -71 19 -76 26 -20 33 -40 164
-36 237 5 86 58 233 112 311 l31 45 7 -190 c4 -104 9 -206 11 -225z m-847 203
c-10 -122 8 -274 41 -341 16 -30 33 -57 39 -59 6 -2 17 10 24 26 6 16 18 32
26 35 9 3 12 1 9 -4 -3 -6 1 -13 9 -16 11 -4 16 -19 16 -48 0 -60 26 -212 50
-289 19 -61 19 -69 6 -96 -22 -41 -59 -67 -116 -81 -116 -28 -165 28 -256 290
-27 80 -38 131 -45 217 -8 105 -7 117 14 176 32 89 154 267 182 267 4 0 5 -35
1 -77z m230 -242 c17 -33 10 -44 -34 -58 -20 -6 -45 -15 -54 -18 -26 -10 -24
45 3 79 27 34 68 32 85 -3z m249 -76 c20 -38 46 -79 56 -91 27 -29 24 -36 -18
-32 -51 4 -70 35 -77 127 -4 41 -5 73 -3 70 2 -2 21 -35 42 -74z m-67 -257
c20 -20 14 -33 -21 -46 -46 -17 -67 -15 -67 5 0 41 60 69 88 41z m2873 -291
c-8 -8 -11 -5 -11 9 0 27 14 41 18 19 2 -9 -1 -22 -7 -28z m-2854 -27 c2 -13
-25 -31 -89 -58 -17 -8 -7 33 14 55 25 27 71 28 75 3z m2833 -47 c-11 -17 -11
-17 -6 0 3 10 6 24 7 30 0 9 2 9 5 0 3 -7 0 -20 -6 -30z m896 -108 c6 -15 -4
-33 -54 -90 -52 -59 -60 -30 -11 43 43 64 55 73 65 47z m-3716 -175 c9 -17 7
-24 -12 -40 -21 -18 -40 -24 -60 -21 -5 0 -8 -7 -8 -16 -1 -16 -2 -16 -15 1
-8 11 -15 28 -15 38 0 49 88 79 110 38z m70 -207 c0 -3 -7 -23 -17 -44 -16
-37 -18 -38 -87 -49 -39 -6 -117 -21 -174 -34 -88 -20 -104 -21 -114 -9 -9 11
-9 17 3 24 10 8 9 9 -8 4 -19 -5 -42 10 -31 20 6 7 193 55 288 76 90 19 140
23 140 12z m3601 -375 c60 -118 -10 -290 -99 -244 -15 8 -33 26 -40 41 -11 23
-8 32 31 89 24 34 51 83 61 109 10 26 19 47 22 47 2 0 13 -19 25 -42z m-186
-346 c-23 -80 -54 -131 -84 -139 -39 -10 -56 9 -55 58 1 89 12 118 52 138 20
11 51 33 67 51 l30 32 3 -42 c2 -22 -4 -66 -13 -98z m-4152 -648 c7 -46 -5
-134 -25 -184 l-14 -34 -25 62 -25 63 18 77 c10 42 21 88 24 102 6 25 6 25 24
-10 9 -19 20 -53 23 -76z m-203 31 c0 -8 -4 -15 -10 -15 -5 0 -10 7 -10 15 0
8 5 15 10 15 6 0 10 -7 10 -15z m-12 -187 c-2 -18 -5 -19 -14 -7 -8 10 -9 21
-1 39 8 20 11 22 14 8 3 -10 3 -28 1 -40z m336 10 c23 -37 27 -100 11 -186
-13 -74 -46 -172 -59 -172 -2 0 -14 30 -27 68 -12 37 -35 98 -50 135 l-28 68
20 37 c11 20 29 45 41 55 29 25 74 22 92 -5z m-563 -31 c-10 -9 -11 -8 -5 6 3
10 9 15 12 12 3 -3 0 -11 -7 -18z m225 -115 c-4 -53 -8 -98 -10 -100 -3 -2
-23 7 -45 20 -43 25 -50 41 -27 74 8 11 22 43 31 72 16 47 19 51 37 41 20 -11
20 -17 14 -107z m3865 52 c17 -36 29 -68 26 -70 -2 -2 -33 -1 -70 3 l-67 6 0
35 c0 38 40 92 67 92 8 0 28 -30 44 -66z m-4120 -17 c-13 -13 -15 1 -4 30 7
17 8 17 11 -1 2 -10 -1 -23 -7 -29z m4304 17 c26 -10 45 -59 45 -116 0 -95
-14 -93 -64 12 -24 52 -42 98 -39 103 5 9 35 9 58 1z m-4318 -61 c-3 -10 -18
-62 -33 -115 -15 -54 -32 -98 -37 -98 -18 0 2 119 29 175 24 51 53 77 41 38z
m3997 -95 c20 -68 14 -72 -12 -9 -17 42 -19 61 -6 61 1 0 9 -23 18 -52z
m-3774 -6 l33 -28 -13 -108 c-8 -68 -17 -106 -24 -104 -6 2 -32 10 -58 17
l-48 13 0 73 c0 86 28 165 58 165 10 0 33 -13 52 -28z m258 -84 c-1 -43 -4
-55 -14 -51 -10 4 -14 26 -14 82 1 71 2 74 15 51 9 -15 14 -48 13 -82z m-48 6
c0 -24 -4 -34 -12 -31 -14 4 -15 23 -4 50 12 26 16 21 16 -19z m-530 -4 c0
-11 -4 -20 -9 -20 -5 0 -7 9 -4 20 3 11 7 20 9 20 2 0 4 -9 4 -20z m4153 -100
c14 -47 23 -87 22 -89 -8 -7 -25 11 -25 28 0 9 -9 50 -19 90 -26 100 -8 76 22
-29z m-4159 -15 c-1 -39 -2 -95 -4 -125 l-4 -55 -27 85 c-28 84 -38 156 -20
146 5 -3 12 1 15 10 3 8 14 14 23 12 15 -3 18 -14 17 -73z m536 -55 c0 -61 -3
-110 -6 -110 -3 0 -18 7 -33 16 -26 16 -27 18 -23 93 2 42 8 80 13 86 5 5 9
17 9 27 0 16 3 17 20 8 18 -10 20 -21 20 -120z m163 53 c0 -32 -2 -67 -4 -77
-2 -10 1 -21 8 -23 7 -3 14 13 19 44 3 26 11 54 16 60 6 7 8 22 5 33 -7 29 0
25 23 -12 29 -48 28 -144 -3 -189 -21 -31 -92 -77 -103 -66 -2 2 1 38 7 78 6
41 9 106 5 145 -3 39 -3 74 1 78 14 14 25 -15 26 -71z m-507 -11 c-4 -3 -11
-1 -17 5 -7 7 -6 19 3 39 l13 29 3 -34 c2 -18 1 -36 -2 -39z m381 1 c-3 -10
-5 -2 -5 17 0 19 2 27 5 18 2 -10 2 -26 0 -35z m3810 -129 c-2 -3 -11 -2 -20
2 -12 4 -14 11 -8 22 4 10 7 24 5 32 -2 8 3 0 12 -19 8 -18 13 -35 11 -37z
m43 -4 c0 -13 -1 -13 -10 0 -5 8 -10 22 -10 30 0 13 1 13 10 0 5 -8 10 -22 10
-30z"/>
<path d="M2943 4606 c4 -10 7 -20 7 -22 0 -9 39 -3 45 7 9 13 6 16 -29 25 -25
6 -28 5 -23 -10z"/>
<path d="M1338 2173 c7 -3 16 -2 19 1 4 3 -2 6 -13 5 -11 0 -14 -3 -6 -6z"/>
<path d="M1258 2163 c7 -3 16 -2 19 1 4 3 -2 6 -13 5 -11 0 -14 -3 -6 -6z"/>
<path d="M1198 2153 c7 -3 16 -2 19 1 4 3 -2 6 -13 5 -11 0 -14 -3 -6 -6z"/>
<path d="M1158 2143 c7 -3 16 -2 19 1 4 3 -2 6 -13 5 -11 0 -14 -3 -6 -6z"/>
<path d="M1118 2133 c7 -3 16 -2 19 1 4 3 -2 6 -13 5 -11 0 -14 -3 -6 -6z"/>
<path d="M1450 5096 c8 -23 6 -25 -23 -28 -41 -4 -46 -35 -18 -98 11 -24 18
-47 15 -51 -2 -4 25 -25 60 -48 35 -23 71 -50 81 -61 16 -18 18 -18 65 10 145
86 360 148 655 189 33 5 50 9 38 10 -27 1 -43 28 -43 70 l0 31 -295 0 -295 0
0 -107 c0 -153 -25 -185 -36 -46 -3 37 -7 87 -10 111 l-5 42 -99 0 -100 0 10
-24z"/>
<path d="M2357 5088 c3 -18 8 -36 12 -40 3 -4 58 -2 121 4 153 13 283 5 405
-26 105 -27 155 -33 155 -16 0 13 -59 49 -134 83 -58 27 -59 27 -312 27 l-253
0 6 -32z"/>
<path d="M1810 4876 c-52 -18 -123 -46 -156 -62 l-62 -28 -15 -76 c-8 -41 -18
-84 -23 -95 -5 -15 -1 -13 15 7 32 39 167 150 239 195 35 22 63 44 62 48 -1 4
11 16 27 26 40 27 21 24 -87 -15z"/>
<path d="M34 4663 c11 -28 71 -102 74 -92 4 9 -65 109 -75 109 -3 0 -2 -8 1
-17z"/>
<path d="M5 4650 c16 -28 128 -195 138 -205 15 -15 1 9 -66 110 -55 83 -92
132 -72 95z"/>
<path d="M1522 4545 c-17 -37 -14 -45 4 -12 9 16 14 31 11 33 -2 2 -9 -7 -15
-21z"/>
<path d="M140 4511 c0 -5 5 -13 10 -16 6 -3 10 -2 10 4 0 5 -4 13 -10 16 -5 3
-10 2 -10 -4z"/>
<path d="M5034 3906 c-10 -8 -16 -17 -13 -20 3 -3 14 3 24 14 21 23 17 26 -11
6z"/>
<path d="M2628 3843 c7 -3 16 -2 19 1 4 3 -2 6 -13 5 -11 0 -14 -3 -6 -6z"/>
<path d="M2537 3809 c-46 -36 -58 -129 -20 -161 14 -11 15 -8 8 22 -4 19 -7
37 -7 40 -1 29 7 46 38 80 39 43 27 56 -19 19z"/>
<path d="M2720 3806 c0 -3 10 -21 21 -41 21 -35 22 -67 4 -120 -6 -16 -3 -15
13 5 22 26 27 91 11 122 -9 17 -49 44 -49 34z"/>
<path d="M3371 3774 c0 -11 3 -14 6 -6 3 7 2 16 -1 19 -3 4 -6 -2 -5 -13z"/>
<path d="M2618 3769 c-42 -24 1 -101 43 -79 24 13 33 45 19 70 -12 22 -35 25
-62 9z"/>
<path d="M2907 3649 c9 -121 -31 -248 -106 -343 -17 -21 -28 -43 -24 -49 15
-24 3 -81 -23 -108 l-26 -28 43 -11 c24 -6 63 -17 87 -24 l42 -13 0 63 c0 40
4 64 13 67 6 3 -2 3 -19 0 -44 -7 -52 13 -18 48 35 37 20 38 -20 2 l-29 -28
22 32 c12 18 26 35 31 38 6 4 10 11 10 18 0 6 -18 -7 -41 -28 l-41 -40 24 35
c13 20 32 46 44 58 11 12 27 35 35 50 22 44 79 120 92 125 39 14 65 -53 30
-78 -9 -7 -17 -19 -19 -28 -2 -13 1 -14 17 -4 13 8 15 14 6 20 -9 6 -8 7 2 5
15 -4 25 -19 35 -51 3 -9 21 -25 41 -34 29 -14 41 -15 65 -6 23 9 30 8 30 -1
0 -13 -75 -143 -97 -168 -8 -9 -12 -22 -8 -27 10 -17 -57 -13 -81 4 -12 8 -25
11 -29 7 -4 -4 -6 0 -5 8 4 29 0 37 -27 49 l-28 12 24 -19 c23 -19 24 -22 14
-83 -10 -55 -9 -66 5 -76 22 -18 53 -16 124 8 33 11 88 26 122 34 34 7 49 13
35 14 -36 1 -89 62 -89 102 0 16 14 57 31 91 l31 61 -20 75 -19 76 69 84 c103
126 116 165 21 64 -43 -45 -84 -82 -90 -82 -13 0 -183 91 -255 136 l-36 23 5
-80z m167 -32 c16 -11 16 -17 6 -34 -18 -29 -48 -45 -71 -38 -25 8 -24 17 7
54 29 35 33 36 58 18z m62 -455 c-18 -16 -18 -16 -6 6 6 13 14 21 18 18 3 -4
-2 -14 -12 -24z"/>
<path d="M3750 3703 c8 -3 25 -15 37 -26 28 -25 38 -19 17 11 -9 14 -25 22
-42 21 -15 0 -21 -3 -12 -6z"/>
<path d="M3636 3678 c-24 -34 -20 -82 10 -117 32 -38 52 -41 25 -3 -32 45 -31
83 4 117 l24 25 -24 0 c-13 0 -31 -10 -39 -22z"/>
<path d="M3710 3650 c-23 -23 -23 -38 2 -54 23 -14 50 11 46 42 -4 34 -22 38
-48 12z"/>
<path d="M2613 3598 c20 -7 35 -7 50 0 18 9 14 11 -28 11 -46 -1 -48 -1 -22
-11z"/>
<path d="M3810 3593 c0 -6 -16 -21 -36 -32 -38 -23 -41 -38 -4 -26 23 7 56 52
46 62 -3 3 -6 2 -6 -4z"/>
<path d="M3830 3040 c-8 -5 -12 -11 -9 -14 3 -3 14 1 25 9 21 16 8 20 -16 5z"/>
<path d="M4375 3020 c-3 -5 3 -10 15 -10 12 0 18 5 15 10 -3 6 -10 10 -15 10
-5 0 -12 -4 -15 -10z"/>
<path d="M4310 2895 c0 -16 30 -55 42 -55 7 0 5 6 -4 13 -8 6 -20 21 -26 32
-6 11 -12 15 -12 10z"/>
<path d="M3001 2849 c0 -24 2 -29 7 -16 7 16 11 14 37 -13 17 -17 46 -41 65
-53 19 -11 57 -40 84 -64 27 -24 58 -49 69 -55 18 -9 19 -8 14 22 l-7 31 42
-35 c41 -35 41 -37 40 -98 l-1 -63 12 57 12 58 50 -67 c28 -37 79 -90 113
-118 59 -48 61 -51 57 -88 -6 -44 -45 -126 -70 -147 -14 -12 -23 -7 -68 37
-29 27 -68 61 -87 73 -19 13 -38 28 -41 33 -3 5 -10 8 -15 8 -5 0 -43 10 -84
23 -41 13 -109 29 -150 36 -41 7 -78 14 -82 17 -10 6 -380 5 -398 -1 -8 -2
-52 -12 -98 -21 -45 -9 -120 -29 -165 -45 -60 -21 -84 -26 -89 -17 -5 9 -8 8
-8 -3 0 -8 -29 -30 -65 -49 -36 -18 -94 -55 -131 -83 -36 -27 -67 -48 -70 -46
-2 3 -8 26 -13 53 -8 45 -7 53 33 129 38 73 48 84 104 116 79 46 92 60 24 26
-29 -15 -57 -24 -62 -21 -10 6 -74 -98 -113 -185 -14 -30 -53 -118 -87 -195
-34 -77 -72 -160 -86 -184 -13 -24 -24 -49 -24 -55 1 -6 14 14 31 44 22 41 28
47 24 25 -34 -156 -56 -291 -66 -398 -13 -144 -7 -472 11 -577 14 -81 51 -222
57 -216 2 2 -3 28 -12 58 -22 74 -45 222 -45 291 l0 57 75 -62 c50 -41 74 -66
70 -76 -4 -12 -3 -13 9 -3 12 10 23 8 58 -12 24 -14 54 -28 68 -32 14 -3 -4
10 -40 31 -98 55 -120 73 -120 97 0 31 -28 106 -51 138 -22 31 -24 58 -6 82
13 18 119 77 138 77 6 0 33 11 61 25 27 14 58 25 67 25 10 0 40 8 67 19 123
47 156 53 324 66 94 7 352 -26 432 -54 32 -12 63 -21 69 -21 6 0 25 -6 42 -13
18 -8 61 -24 97 -36 35 -12 74 -30 85 -40 11 -9 33 -25 48 -35 15 -9 32 -27
38 -39 5 -12 20 -37 33 -55 29 -39 41 -115 27 -169 -10 -38 -38 -71 -106 -128
-24 -20 -27 -26 -16 -34 19 -12 -48 -26 -78 -16 -12 3 -21 2 -21 -4 0 -5 -21
-9 -47 -9 -27 0 -130 -2 -230 -5 -118 -3 -183 -2 -183 5 0 6 -27 8 -65 6 -36
-1 -65 0 -65 3 0 3 -26 9 -57 13 -132 17 -158 17 -177 3 -17 -13 -12 -15 58
-26 42 -6 90 -11 105 -11 51 0 90 -12 94 -29 4 -14 5 -13 6 2 1 16 14 17 179
13 345 -9 546 22 682 105 42 26 46 27 64 11 18 -16 18 -16 7 6 -10 18 -10 26
0 38 10 12 9 13 -4 8 -12 -4 -17 3 -22 33 -16 97 -30 145 -70 231 l-44 92 54
0 c49 0 56 -3 78 -32 44 -60 44 -62 1 -55 -21 3 -48 1 -59 -3 -17 -7 -16 -9
10 -10 17 -2 34 -2 39 -1 33 6 68 -14 86 -50 l20 -39 -62 -1 c-47 -1 -57 -3
-38 -9 14 -4 42 -8 62 -9 50 -1 60 -21 11 -22 -21 -1 -49 -5 -63 -9 -18 -6 -7
-8 42 -9 l67 -1 5 -42 c4 -24 11 -81 16 -128 6 -47 17 -123 25 -170 20 -111
19 -165 -2 -201 -23 -38 -35 -33 -49 22 l-12 44 -1 -47 c-1 -45 -3 -48 -28
-49 -16 0 -37 -5 -48 -10 -17 -8 -17 -9 5 -4 14 2 48 5 76 5 48 0 51 2 73 40
l22 39 -20 124 c-41 249 -91 784 -91 965 l0 96 -47 42 -48 42 0 76 c0 65 3 76
17 76 9 0 20 5 23 10 3 6 2 10 -4 10 -6 0 -7 8 -4 17 4 9 8 12 10 6 2 -6 16 1
31 16 25 23 30 39 45 151 10 69 22 126 27 128 5 2 2 19 -7 38 -9 19 -20 29
-23 24 -9 -15 -129 98 -175 164 -21 31 -44 56 -51 56 -8 0 -41 27 -74 59 -33
32 -60 57 -60 54 0 -2 7 -18 16 -34 32 -62 11 -63 -50 -3 -33 33 -65 58 -71
56 -7 -1 -38 23 -69 54 l-56 56 1 -33z m394 -641 c4 -46 10 -102 15 -125 7
-38 4 -46 -20 -71 -39 -41 -50 -31 -50 48 0 68 0 69 25 64 20 -3 25 0 25 16 0
11 -4 20 -8 20 -7 0 -20 21 -40 64 -3 5 1 5 8 1 8 -5 11 -4 6 3 -7 12 13 62
25 62 4 0 10 -37 14 -82z m80 -63 c-3 -22 -14 -48 -24 -58 -17 -17 -18 -14
-27 79 l-9 96 33 -38 c30 -35 33 -44 27 -79z m102 78 c-3 -10 -8 -39 -12 -65
-3 -27 -10 -48 -15 -48 -5 0 -6 7 -3 17 4 11 3 14 -5 9 -7 -4 -15 0 -19 11 -6
16 -8 15 -14 -7 -7 -23 -7 -24 -8 -3 -1 13 9 29 22 38 13 8 30 26 37 40 16 29
23 33 17 8z m-1623 -48 c5 -26 0 -35 -41 -70 -26 -22 -44 -33 -41 -25 32 81
62 140 68 133 5 -4 11 -21 14 -38z m1353 -72 c-2 -16 -4 -5 -4 22 0 28 2 40 4
28 2 -13 2 -35 0 -50z m-100 -75 c-3 -7 -5 -2 -5 12 0 14 2 19 5 13 2 -7 2
-19 0 -25z m-40 -55 c-3 -10 -5 -4 -5 12 0 17 2 24 5 18 2 -7 2 -21 0 -30z
m160 -19 c-3 -3 -12 -4 -19 -1 -8 3 -5 6 6 6 11 1 17 -2 13 -5z m81 -549 l37
-34 -57 -1 c-51 0 -59 3 -77 29 -23 32 -18 39 32 40 18 1 40 -11 65 -34z"/>
<path d="M4410 2836 c0 -2 8 -10 18 -17 15 -13 16 -12 3 4 -13 16 -21 21 -21
13z"/>
<path d="M2605 2790 c-42 -43 -93 -71 -136 -75 -17 -1 -62 -30 -118 -75 -50
-41 -91 -76 -91 -78 0 -6 62 39 115 83 57 48 150 84 168 66 16 -16 27 -13 20
5 -4 10 11 32 43 65 26 27 46 49 43 49 -3 0 -22 -18 -44 -40z"/>
<path d="M2704 2799 c-16 -17 -48 -42 -71 -57 -24 -15 -43 -33 -43 -41 0 -8 6
-6 18 8 9 11 35 27 57 35 22 8 33 15 26 15 -10 1 -3 14 19 36 19 19 32 35 29
35 -3 0 -18 -14 -35 -31z"/>
<path d="M2805 2807 c-11 -8 -38 -21 -60 -31 -30 -12 -33 -15 -11 -11 23 5 27
3 23 -9 -7 -18 10 -21 33 -6 13 8 13 10 1 10 -10 0 -5 10 14 30 31 32 31 38 0
17z"/>
<path d="M2479 2763 l-24 -28 28 24 c25 23 32 31 24 31 -2 0 -14 -12 -28 -27z"/>
<path d="M4490 2757 c0 -2 15 -16 33 -33 l32 -29 -29 33 c-28 30 -36 37 -36
29z"/>
<path d="M2217 2541 c-37 -24 -39 -27 -18 -27 9 0 25 11 35 23 20 27 19 27
-17 4z"/>
<path d="M3550 2515 c0 -5 5 -17 10 -25 5 -8 10 -10 10 -5 0 6 -5 17 -10 25
-5 8 -10 11 -10 5z"/>
<path d="M3650 2313 c11 -21 30 -49 40 -63 16 -20 20 -22 20 -7 0 9 -4 17 -10
17 -5 0 -21 20 -36 45 -14 25 -28 45 -31 45 -2 0 5 -17 17 -37z"/>
<path d="M3951 2290 c14 -31 19 -36 19 -24 0 6 -7 19 -16 30 -14 18 -14 18 -3
-6z"/>
<path d="M3891 2044 c0 -11 3 -14 6 -6 3 7 2 16 -1 19 -3 4 -6 -2 -5 -13z"/>
<path d="M3901 1994 c0 -11 3 -14 6 -6 3 7 2 16 -1 19 -3 4 -6 -2 -5 -13z"/>
<path d="M3780 1995 c0 -5 5 -17 10 -25 5 -8 10 -10 10 -5 0 6 -5 17 -10 25
-5 8 -10 11 -10 5z"/>
<path d="M1737 1916 c-4 -10 -5 -21 -2 -24 9 -9 17 6 13 25 -3 17 -4 17 -11
-1z"/>
<path d="M3827 1885 c3 -14 8 -23 11 -20 3 3 17 -5 31 -17 22 -19 21 -17 -4
12 -16 19 -33 39 -36 43 -4 5 -4 -3 -2 -18z"/>
<path d="M1707 1845 c-24 -50 -20 -58 4 -12 11 22 19 41 17 43 -3 2 -12 -12
-21 -31z"/>
<path d="M3841 1834 c0 -11 3 -14 6 -6 3 7 2 16 -1 19 -3 4 -6 -2 -5 -13z"/>
<path d="M3907 1809 c7 -7 15 -10 18 -7 3 3 -2 9 -12 12 -14 6 -15 5 -6 -5z"/>
<path d="M1656 1735 c-9 -26 -7 -32 5 -12 6 10 9 21 6 23 -2 3 -7 -2 -11 -11z"/>
<path d="M1503 1690 c0 -30 2 -43 4 -27 2 15 2 39 0 55 -2 15 -4 2 -4 -28z"/>
<path d="M3881 1690 c0 -8 4 -22 9 -30 12 -18 12 -2 0 25 -6 13 -9 15 -9 5z"/>
<path d="M1512 1590 c0 -14 2 -19 5 -12 2 6 2 18 0 25 -3 6 -5 1 -5 -13z"/>
<path d="M1565 1529 c-4 -6 -14 -8 -24 -4 -13 5 -14 4 -3 -6 10 -11 15 -10 29
4 10 9 14 17 11 17 -4 0 -10 -5 -13 -11z"/>
<path d="M3951 1505 c0 -5 6 -21 14 -35 8 -14 14 -20 14 -15 0 6 -6 21 -14 35
-8 14 -14 21 -14 15z"/>
<path d="M3980 1146 c0 -2 8 -10 18 -17 15 -13 16 -12 3 4 -13 16 -21 21 -21
13z"/>
<path d="M1406 927 c-22 -29 -28 -43 -15 -30 21 19 65 83 57 83 -2 0 -20 -24
-42 -53z"/>
<path d="M1866 935 c-9 -26 -7 -32 5 -12 6 10 9 21 6 23 -2 3 -7 -2 -11 -11z"/>
<path d="M1422 868 c-33 -48 -55 -88 -49 -88 4 0 19 22 71 103 29 44 10 31
-22 -15z"/>
<path d="M1840 828 c-7 -40 -16 -86 -21 -101 -5 -19 -4 -39 4 -58 11 -28 12
-25 14 43 2 40 8 97 14 126 6 30 9 56 6 58 -3 3 -10 -28 -17 -68z"/>
<path d="M1476 778 c-28 -43 -76 -153 -81 -188 -3 -21 2 -12 14 25 11 33 36
87 56 119 19 32 33 61 31 63 -2 3 -11 -6 -20 -19z"/>
<path d="M3551 744 c0 -11 3 -14 6 -6 3 7 2 16 -1 19 -3 4 -6 -2 -5 -13z"/>
<path d="M4040 716 c0 -2 8 -10 18 -17 15 -13 16 -12 3 4 -13 16 -21 21 -21
13z"/>
<path d="M3720 703 c0 -12 72 -68 110 -87 19 -9 26 -11 16 -4 -11 7 -43 32
-73 56 -29 23 -53 39 -53 35z"/>
<path d="M3572 650 c0 -14 2 -19 5 -12 2 6 2 18 0 25 -3 6 -5 1 -5 -13z"/>
<path d="M1840 624 c0 -6 7 -19 16 -30 14 -18 14 -18 3 6 -14 31 -19 36 -19
24z"/>
<path d="M3770 571 c0 -5 7 -14 15 -21 9 -7 32 -39 52 -71 35 -58 55 -80 32
-36 -18 33 -89 137 -94 137 -3 0 -5 -4 -5 -9z"/>
<path d="M1880 552 c15 -30 86 -102 101 -102 7 0 -1 10 -17 22 -16 13 -38 34
-49 47 -47 57 -47 58 -35 33z"/>
<path d="M3388 474 c-59 -30 -68 -32 -68 -17 -1 16 -2 16 -12 -2 -6 -11 -13
-22 -15 -25 -3 -3 -48 -8 -101 -11 l-97 -7 100 2 c97 3 103 4 194 49 52 26 88
47 80 47 -8 -1 -44 -17 -81 -36z"/>
<path d="M2910 450 c-9 -6 -10 -10 -3 -10 6 0 15 5 18 10 8 12 4 12 -15 0z"/>
<path d="M2001 446 c14 -15 167 -36 242 -34 l82 2 -77 3 c-65 3 -78 7 -78 21
-1 16 -1 16 -10 1 -8 -14 -17 -15 -47 -9 -74 16 -118 22 -112 16z"/>
<path d="M1612 410 c0 -14 2 -19 5 -12 2 6 2 18 0 25 -3 6 -5 1 -5 -13z"/>
<path d="M3058 423 c6 -2 18 -2 25 0 6 3 1 5 -13 5 -14 0 -19 -2 -12 -5z"/>
<path d="M3811 383 c35 -59 49 -78 49 -69 0 11 -60 106 -67 106 -2 0 6 -17 18
-37z"/>
<path d="M3891 385 c1 -19 18 -51 18 -35 0 8 -4 22 -9 30 -5 8 -9 11 -9 5z"/>
<path d="M1650 340 c0 -16 2 -30 4 -30 2 0 6 14 8 30 3 17 1 30 -4 30 -4 0 -8
-13 -8 -30z"/>
<path d="M1592 320 c0 -14 2 -19 5 -12 2 6 2 18 0 25 -3 6 -5 1 -5 -13z"/>
<path d="M2848 203 c28 -2 76 -2 105 0 28 2 5 3 -53 3 -58 0 -81 -1 -52 -3z"/>
<path d="M3058 203 c12 -2 30 -2 40 0 9 3 -1 5 -23 4 -22 0 -30 -2 -17 -4z"/>
<path d="M3505 190 c-10 -11 -33 -22 -51 -26 -19 -3 -37 -10 -39 -15 -3 -4 16
-2 42 6 26 8 49 15 50 15 4 0 24 40 20 40 -2 0 -12 -9 -22 -20z"/>
<path d="M2600 170 c-41 -16 -70 -29 -63 -29 7 -1 38 9 70 21 32 12 76 25 98
29 l40 6 -35 1 c-19 0 -69 -13 -110 -28z"/>
<path d="M3188 193 c6 -2 18 -2 25 0 6 3 1 5 -13 5 -14 0 -19 -2 -12 -5z"/>
<path d="M3091 183 c2 -6 29 -30 59 -54 30 -23 46 -32 35 -20 -27 31 -99 88
-94 74z"/>
<path d="M3260 180 c14 -4 36 -8 50 -8 22 0 22 1 -5 8 -16 4 -39 8 -50 8 -16
0 -15 -2 5 -8z"/>
<path d="M3378 173 c12 -2 30 -2 40 0 9 3 -1 5 -23 4 -22 0 -30 -2 -17 -4z"/>
<path d="M2342 154 c10 -10 20 -16 22 -13 3 3 -5 11 -17 18 -21 13 -21 12 -5
-5z"/>
<path d="M3070 143 c0 -6 5 -15 10 -18 6 -4 24 -33 40 -66 17 -32 33 -59 35
-59 7 0 -49 110 -69 135 -8 11 -16 15 -16 8z"/>
<path d="M2478 133 c6 -2 18 -2 25 0 6 3 1 5 -13 5 -14 0 -19 -2 -12 -5z"/>
</g>
</svg>
